<svg id="visual" viewBox="0 0 900 600" width="900" height="600" xmlns="http://www.w3.org/2000/svg" xmlns:xlink="http://www.w3.org/1999/xlink" version="1.1"><rect x="0" y="0" width="900" height="600" fill="#001220"></rect><defs><linearGradient id="grad1_0" x1="33.3%" y1="100%" x2="100%" y2="0%"><stop offset="20%" stop-color="#fbae3c" stop-opacity="1"></stop><stop offset="80%" stop-color="#fbae3c" stop-opacity="1"></stop></linearGradient></defs><defs><linearGradient id="grad1_1" x1="33.3%" y1="100%" x2="100%" y2="0%"><stop offset="20%" stop-color="#fbae3c" stop-opacity="1"></stop><stop offset="80%" stop-color="#eb7458" stop-opacity="1"></stop></linearGradient></defs><defs><linearGradient id="grad1_2" x1="33.3%" y1="100%" x2="100%" y2="0%"><stop offset="20%" stop-color="#b84e6c" stop-opacity="1"></stop><stop offset="80%" stop-color="#eb7458" stop-opacity="1"></stop></linearGradient></defs><defs><linearGradient id="grad1_3" x1="33.3%" y1="100%" x2="100%" y2="0%"><stop offset="20%" stop-color="#b84e6c" stop-opacity="1"></stop><stop offset="80%" stop-color="#713c69" stop-opacity="1"></stop></linearGradient></defs><defs><linearGradient id="grad1_4" x1="33.3%" y1="100%" x2="100%" y2="0%"><stop offset="20%" stop-color="#2d2b4c" stop-opacity="1"></stop><stop offset="80%" stop-color="#713c69" stop-opacity="1"></stop></linearGradient></defs><defs><linearGradient id="grad1_5" x1="33.3%" y1="100%" x2="100%" y2="0%"><stop offset="20%" stop-color="#2d2b4c" stop-opacity="1"></stop><stop offset="80%" stop-color="#001220" stop-opacity="1"></stop></linearGradient></defs><defs><linearGradient id="grad2_0" x1="0%" y1="100%" x2="66.7%" y2="0%"><stop offset="20%" stop-color="#fbae3c" stop-opacity="1"></stop><stop offset="80%" stop-color="#fbae3c" stop-opacity="1"></stop></linearGradient></defs><defs><linearGradient id="grad2_1" x1="0%" y1="100%" x2="66.7%" y2="0%"><stop offset="20%" stop-color="#eb7458" stop-opacity="1"></stop><stop offset="80%" stop-color="#fbae3c" stop-opacity="1"></stop></linearGradient></defs><defs><linearGradient id="grad2_2" x1="0%" y1="100%" x2="66.7%" y2="0%"><stop offset="20%" stop-color="#eb7458" stop-opacity="1"></stop><stop offset="80%" stop-color="#b84e6c" stop-opacity="1"></stop></linearGradient></defs><defs><linearGradient id="grad2_3" x1="0%" y1="100%" x2="66.7%" y2="0%"><stop offset="20%" stop-color="#713c69" stop-opacity="1"></stop><stop offset="80%" stop-color="#b84e6c" stop-opacity="1"></stop></linearGradient></defs><defs><linearGradient id="grad2_4" x1="0%" y1="100%" x2="66.7%" y2="0%"><stop offset="20%" stop-color="#713c69" stop-opacity="1"></stop><stop offset="80%" stop-color="#2d2b4c" stop-opacity="1"></stop></linearGradient></defs><defs><linearGradient id="grad2_5" x1="0%" y1="100%" x2="66.7%" y2="0%"><stop offset="20%" stop-color="#001220" stop-opacity="1"></stop><stop offset="80%" stop-color="#2d2b4c" stop-opacity="1"></stop></linearGradient></defs><g transform="translate(900, 600)"><path d="M-297.5 0C-289.7 -52 -281.9 -104 -257.6 -148.7C-233.4 -193.5 -192.7 -231 -147 -254.6C-101.3 -278.2 -50.7 -287.8 0 -297.5L0 0Z" fill="#131f37"></path><path d="M-247.9 0C-241.4 -43.3 -234.9 -86.6 -214.7 -123.9C-194.5 -161.2 -160.6 -192.5 -122.5 -212.2C-84.4 -231.8 -42.2 -239.9 0 -247.9L0 0Z" fill="#4d345e"></path><path d="M-198.3 0C-193.1 -34.7 -187.9 -69.3 -171.7 -99.2C-155.6 -129 -128.4 -154 -98 -169.7C-67.6 -185.5 -33.8 -191.9 0 -198.3L0 0Z" fill="#96446e"></path><path d="M-148.7 0C-144.8 -26 -140.9 -52 -128.8 -74.4C-116.7 -96.7 -96.3 -115.5 -73.5 -127.3C-50.7 -139.1 -25.3 -143.9 0 -148.7L0 0Z" fill="#d55e64"></path><path d="M-99.2 0C-96.6 -17.3 -94 -34.7 -85.9 -49.6C-77.8 -64.5 -64.2 -77 -49 -84.9C-33.8 -92.7 -16.9 -95.9 0 -99.2L0 0Z" fill="#f88f4a"></path><path d="M-49.6 0C-48.3 -8.7 -47 -17.3 -42.9 -24.8C-38.9 -32.2 -32.1 -38.5 -24.5 -42.4C-16.9 -46.4 -8.4 -48 0 -49.6L0 0Z" fill="#fbae3c"></path></g><g transform="translate(0, 0)"><path d="M297.5 0C290.2 52.9 282.9 105.8 257.6 148.7C232.3 191.6 188.9 224.6 143 247.7C97.1 270.8 48.5 284.1 0 297.5L0 0Z" fill="#131f37"></path><path d="M247.9 0C241.8 44.1 235.8 88.2 214.7 123.9C193.6 159.7 157.5 187.1 119.2 206.4C80.9 225.7 40.4 236.8 0 247.9L0 0Z" fill="#4d345e"></path><path d="M198.3 0C193.5 35.3 188.6 70.5 171.7 99.2C154.9 127.8 126 149.7 95.3 165.1C64.7 180.5 32.4 189.4 0 198.3L0 0Z" fill="#96446e"></path><path d="M148.7 0C145.1 26.5 141.5 52.9 128.8 74.4C116.1 95.8 94.5 112.3 71.5 123.8C48.5 135.4 24.3 142.1 0 148.7L0 0Z" fill="#d55e64"></path><path d="M99.2 0C96.7 17.6 94.3 35.3 85.9 49.6C77.4 63.9 63 74.9 47.7 82.6C32.4 90.3 16.2 94.7 0 99.2L0 0Z" fill="#f88f4a"></path><path d="M49.6 0C48.4 8.8 47.2 17.6 42.9 24.8C38.7 31.9 31.5 37.4 23.8 41.3C16.2 45.1 8.1 47.4 0 49.6L0 0Z" fill="#fbae3c"></path></g></svg>